<?xml version="1.0" encoding="iso-8859-1"?>
<!-- Generator: Adobe Illustrator 19.0.0, SVG Export Plug-In . SVG Version: 6.00 Build 0)  -->
<svg version="1.1" id="Layer_1" xmlns="http://www.w3.org/2000/svg" xmlns:xlink="http://www.w3.org/1999/xlink" x="0px" y="0px"
	 viewBox="0 0 512.001 512.001" style="enable-background:new 0 0 512.001 512.001;" xml:space="preserve">
<circle style="fill:#005ECE;" cx="255.997" cy="255.996" r="255.996"/>
<path style="fill:#004DAD;" d="M512.001,255.999c0-15.957-1.473-31.569-4.267-46.719L360.806,62.354l-99.108-15.517l-2.225,14.209
	l5.43,0.851l-6.878,43.934l-27.043-4.234l-2.225,14.209l7.246,1.135l-7.032,44.915l-31.255-30.18
	c-2.032-4.534-6.586-7.716-11.854-7.716h-70.837c-7.145,0-12.99,5.845-12.99,12.99c0,3.342,1.289,6.389,3.382,8.698H74.611
	c-7.145,0-12.99,5.845-12.99,12.99c0,5.268,3.183,9.822,7.716,11.854l136.764,137.437l-5.966,38.11l-7.246-1.135l-1.73,11.052
	l7.246,1.135l-13.901,88.785l66.056,66.056c1.81,0.038,3.622,0.069,5.44,0.069C397.385,512,512.001,397.385,512.001,255.999z"/>
<g>
	<path style="fill:#FFFFFF;" d="M74.611,145.647h30.806c-2.093-2.308-3.382-5.355-3.382-8.698c0-7.145,5.846-12.99,12.99-12.99
		h70.837c7.145,0,12.99,5.846,12.99,12.99c0,7.145-5.846,12.99-12.99,12.99h-30.806c2.092,2.308,3.382,5.355,3.382,8.698l0,0
		c0,7.145-5.846,12.99-12.99,12.99H74.611c-7.145,0-12.99-5.845-12.99-12.99l0,0C61.621,151.492,67.468,145.647,74.611,145.647z"/>
	<path style="fill:#FFFFFF;" d="M452.941,262.066h-30.806c2.093-2.308,3.382-5.355,3.382-8.698c0-7.145-5.846-12.99-12.99-12.99
		H341.69c-7.145,0-12.99,5.845-12.99,12.99s5.846,12.99,12.99,12.99h30.806c-2.092,2.308-3.382,5.356-3.382,8.698l0,0
		c0,7.145,5.845,12.99,12.99,12.99h70.837c7.145,0,12.99-5.846,12.99-12.99l0,0C465.932,267.912,460.086,262.066,452.941,262.066z"
		/>
</g>
<path style="fill:#36C98C;" d="M168.354,392.297c0-25.163-20.588-45.751-45.751-45.751H16.494
	c9.983,26.392,24.187,50.708,41.813,72.106h110.046v-26.355H168.354z"/>
<path style="fill:#00B764;" d="M343.668,392.297c0-25.163,20.588-45.751,45.751-45.751h106.108
	c-9.983,26.392-24.187,50.708-41.813,72.106H343.668V392.297z"/>
<rect x="260.837" y="66.413" transform="matrix(-0.988 -0.1547 0.1547 -0.988 593.1896 228.9261)" style="fill:#DAC8B8;" width="89.33" height="49.941"/>
<rect x="305.241" y="69.861" transform="matrix(-0.988 -0.1547 0.1547 -0.988 636.533 239.1953)" style="fill:#C4A98D;" width="44.663" height="49.941"/>
<rect x="210.417" y="112.782" transform="matrix(-0.988 -0.1547 0.1547 -0.988 502.7783 609.8895)" style="fill:#DAC8B8;" width="129.403" height="345.201"/>
<rect x="274.736" y="117.794" transform="matrix(-0.988 -0.1547 0.1547 -0.988 565.5544 624.7966)" style="fill:#C4A98D;" width="64.702" height="345.201"/>
<rect x="259.985" y="54.52" transform="matrix(-0.988 -0.1547 0.1547 -0.988 607.0135 170.659)" style="fill:#BB957D;" width="100.323" height="14.383"/>
<rect x="309.849" y="58.397" transform="matrix(-0.988 -0.1547 0.1547 -0.988 655.677 182.1992)" style="fill:#9D7852;" width="50.156" height="14.383"/>
<rect x="229.015" y="112.664" transform="matrix(-0.988 -0.1547 0.1547 -0.988 579.9391 284.8386)" style="fill:#BB957D;" width="144.074" height="14.383"/>
<g>
	
		<rect x="300.611" y="118.236" transform="matrix(-0.988 -0.1547 0.1547 -0.988 649.8028 301.4206)" style="fill:#9D7852;" width="72.036" height="14.383"/>
	<path style="fill:#9D7852;" d="M289.381,80.9c0.688-4.394-2.344-8.55-6.737-9.239c-4.394-0.688-8.55,2.344-9.239,6.737
		l-3.421,21.851l15.976,2.501L289.381,80.9z"/>
	<path style="fill:#9D7852;" d="M314.697,84.864c0.688-4.394-2.344-8.55-6.737-9.239c-4.394-0.688-8.551,2.344-9.239,6.737
		l-3.421,21.851l15.976,2.501L314.697,84.864z"/>
</g>
<g>
	<path style="fill:#715538;" d="M311.276,106.715l3.421-21.851c0.688-4.394-2.344-8.55-6.737-9.239l-4.672,29.839L311.276,106.715z"
		/>
	<path style="fill:#715538;" d="M340.014,88.828c0.688-4.394-2.344-8.55-6.737-9.239c-4.394-0.688-8.55,2.344-9.239,6.737
		l-3.421,21.851l15.976,2.501L340.014,88.828z"/>
</g>
<g>
	<path style="fill:#9D7852;" d="M233.039,392.331c1.175-7.511-4.007-14.617-11.518-15.793c-7.511-1.175-14.617,4.007-15.793,11.517
		l-7.389,47.201l27.31,4.276L233.039,392.331z"/>
	<path style="fill:#9D7852;" d="M271.424,398.341c1.175-7.511-4.007-14.617-11.517-15.793c-7.511-1.175-14.617,4.007-15.793,11.518
		l-7.389,47.201l27.31,4.276L271.424,398.341z"/>
</g>
<g>
	<path style="fill:#715538;" d="M271.424,398.341c1.175-7.511-4.007-14.617-11.517-15.793l0,0l-9.528,60.856l13.656,2.138
		L271.424,398.341z"/>
	<path style="fill:#715538;" d="M309.808,404.35c1.176-7.511-4.007-14.617-11.518-15.793c-7.511-1.175-14.617,4.007-15.793,11.517
		l-7.39,47.201l27.31,4.276L309.808,404.35z"/>
</g>
<g>
	<path style="fill:#9D7852;" d="M280.831,145.829c0.633-4.046-1.983-7.848-5.814-8.448c-3.832-0.6-7.484,2.22-8.118,6.266
		l-4.24,27.081l13.931,2.182L280.831,145.829z"/>
	<path style="fill:#9D7852;" d="M303.548,149.386c0.633-4.046-1.983-7.848-5.814-8.448c-3.832-0.6-7.484,2.22-8.118,6.266
		l-4.24,27.081l13.931,2.182L303.548,149.386z"/>
</g>
<g>
	<path style="fill:#715538;" d="M299.308,176.467l4.24-27.081c0.633-4.046-1.983-7.847-5.814-8.448l-5.392,34.438L299.308,176.467z"
		/>
	<path style="fill:#715538;" d="M326.266,152.943c0.633-4.046-1.983-7.848-5.814-8.448c-3.831-0.6-7.484,2.22-8.118,6.266
		l-4.24,27.081l13.931,2.182L326.266,152.943z"/>
</g>
<path style="fill:#9D7852;" d="M258.112,142.272c0.633-4.046-1.983-7.848-5.814-8.448c-3.832-0.6-7.484,2.22-8.118,6.266
	l-4.24,27.081l13.931,2.182L258.112,142.272z"/>
<path style="fill:#715538;" d="M348.984,156.499c0.633-4.046-1.983-7.848-5.814-8.448c-3.832-0.6-7.484,2.22-8.118,6.266
	l-4.24,27.081l13.931,2.182L348.984,156.499z"/>
<rect x="219.514" y="174.925" transform="matrix(-0.988 -0.1547 0.1547 -0.988 551.6672 403.9653)" style="fill:#BB957D;" width="144.074" height="11.187"/>
<g>
	
		<rect x="291.107" y="180.498" transform="matrix(-0.988 -0.1547 0.1547 -0.988 621.5258 420.5471)" style="fill:#9D7852;" width="72.036" height="11.187"/>
	<path style="fill:#9D7852;" d="M271.381,206.184c0.633-4.046-1.983-7.848-5.814-8.448c-3.832-0.6-7.484,2.22-8.118,6.266
		l-4.24,27.081l13.931,2.182L271.381,206.184z"/>
	<path style="fill:#9D7852;" d="M294.099,209.74c0.633-4.046-1.983-7.848-5.814-8.448c-3.832-0.6-7.484,2.22-8.118,6.266
		l-4.24,27.081l13.931,2.182L294.099,209.74z"/>
</g>
<g>
	<path style="fill:#715538;" d="M289.858,236.822l4.24-27.081c0.633-4.046-1.983-7.848-5.814-8.448l-5.392,34.438L289.858,236.822z"
		/>
	<path style="fill:#715538;" d="M316.816,213.297c0.633-4.046-1.983-7.848-5.814-8.448c-3.832-0.6-7.484,2.22-8.118,6.266
		l-4.24,27.081l13.931,2.182L316.816,213.297z"/>
</g>
<path style="fill:#9D7852;" d="M248.663,202.627c0.633-4.046-1.983-7.848-5.814-8.448c-3.832-0.6-7.484,2.22-8.118,6.266
	l-4.24,27.081l13.931,2.182L248.663,202.627z"/>
<path style="fill:#715538;" d="M339.535,216.854c0.633-4.046-1.983-7.848-5.814-8.448c-3.832-0.6-7.484,2.22-8.118,6.266
	l-4.24,27.081l13.931,2.181L339.535,216.854z"/>
<rect x="210.057" y="235.279" transform="matrix(-0.988 -0.1547 0.1547 -0.988 523.5304 522.4846)" style="fill:#BB957D;" width="144.074" height="11.187"/>
<g>
	
		<rect x="281.663" y="240.859" transform="matrix(-0.988 -0.1547 0.1547 -0.988 593.4136 539.0817)" style="fill:#9D7852;" width="72.036" height="11.187"/>
	<path style="fill:#9D7852;" d="M261.931,266.538c0.633-4.046-1.983-7.848-5.814-8.448c-3.832-0.6-7.484,2.22-8.118,6.266
		l-4.24,27.081l13.931,2.182L261.931,266.538z"/>
	<path style="fill:#9D7852;" d="M284.65,270.095c0.633-4.046-1.983-7.848-5.814-8.448c-3.832-0.6-7.484,2.22-8.118,6.266
		l-4.24,27.081l13.931,2.182L284.65,270.095z"/>
</g>
<g>
	<path style="fill:#715538;" d="M280.41,297.176l4.24-27.081c0.633-4.046-1.983-7.848-5.814-8.448l-5.392,34.438L280.41,297.176z"/>
	<path style="fill:#715538;" d="M307.368,273.652c0.633-4.046-1.983-7.848-5.814-8.448c-3.832-0.6-7.484,2.22-8.118,6.266
		l-4.24,27.081l13.931,2.181L307.368,273.652z"/>
</g>
<path style="fill:#9D7852;" d="M239.213,262.981c0.633-4.046-1.983-7.848-5.814-8.448c-3.832-0.6-7.484,2.22-8.118,6.266
	l-4.24,27.081l13.931,2.182L239.213,262.981z"/>
<path style="fill:#715538;" d="M330.085,277.21c0.633-4.047-1.983-7.848-5.814-8.448c-3.832-0.6-7.484,2.22-8.118,6.266
	l-4.24,27.081l13.931,2.182L330.085,277.21z"/>
<rect x="200.609" y="295.645" transform="matrix(-0.988 -0.1547 0.1547 -0.988 495.4092 641.0268)" style="fill:#BB957D;" width="144.074" height="11.187"/>
<g>
	
		<rect x="272.206" y="301.219" transform="matrix(-0.988 -0.1547 0.1547 -0.988 565.2759 657.6114)" style="fill:#9D7852;" width="72.036" height="11.187"/>
	<path style="fill:#9D7852;" d="M252.482,326.893c0.633-4.046-1.983-7.848-5.814-8.448c-3.832-0.6-7.484,2.22-8.118,6.266
		l-4.24,27.081l13.931,2.182L252.482,326.893z"/>
	<path style="fill:#9D7852;" d="M275.2,330.449c0.633-4.046-1.983-7.848-5.814-8.448c-3.832-0.6-7.484,2.22-8.118,6.266
		l-4.24,27.081l13.931,2.181L275.2,330.449z"/>
</g>
<g>
	<path style="fill:#715538;" d="M270.96,357.531l4.24-27.081c0.633-4.046-1.983-7.847-5.814-8.448l-5.392,34.438L270.96,357.531z"/>
	<path style="fill:#715538;" d="M297.918,334.006c0.633-4.046-1.983-7.848-5.814-8.448c-3.832-0.6-7.484,2.22-8.118,6.266
		l-4.24,27.081l13.931,2.182L297.918,334.006z"/>
</g>
<path style="fill:#9D7852;" d="M229.764,323.336c0.633-4.046-1.983-7.848-5.814-8.448c-3.832-0.6-7.484,2.22-8.118,6.266
	l-4.24,27.081l13.931,2.182L229.764,323.336z"/>
<path style="fill:#715538;" d="M320.636,337.564c0.633-4.046-1.983-7.848-5.814-8.448c-3.832-0.6-7.484,2.22-8.118,6.266
	l-4.24,27.081l13.931,2.181L320.636,337.564z"/>
<rect x="191.164" y="356" transform="matrix(-0.988 -0.1547 0.1547 -0.988 467.297 759.5491)" style="fill:#BB957D;" width="144.074" height="11.187"/>
<rect x="262.759" y="361.569" transform="matrix(-0.988 -0.1547 0.1547 -0.988 537.1602 776.125)" style="fill:#9D7852;" width="72.036" height="11.187"/>
<path style="fill:#00B764;" d="M256,512c80.503,0,152.313-37.17,199.241-95.27H56.76C103.688,474.83,175.498,512,256,512z"/>
<g>
	<rect x="104.207" y="427.263" style="fill:#008849;" width="68.262" height="12.809"/>
	<rect x="195.916" y="440.073" style="fill:#008849;" width="49.611" height="12.808"/>
	<rect x="166.858" y="468.191" style="fill:#008849;" width="49.611" height="12.808"/>
	<path style="fill:#008849;" d="M254.557,416.73v95.249c0.482,0.003,0.96,0.021,1.443,0.021c80.503,0,152.313-37.17,199.241-95.27
		L254.557,416.73L254.557,416.73z"/>
</g>
<g>
	<rect x="347.696" y="427.263" style="fill:#007539;" width="68.262" height="12.809"/>
	<rect x="296.403" y="469.247" style="fill:#007539;" width="49.611" height="12.808"/>
	<rect x="271.587" y="442.038" style="fill:#007539;" width="49.611" height="12.808"/>
</g>
<g>
</g>
<g>
</g>
<g>
</g>
<g>
</g>
<g>
</g>
<g>
</g>
<g>
</g>
<g>
</g>
<g>
</g>
<g>
</g>
<g>
</g>
<g>
</g>
<g>
</g>
<g>
</g>
<g>
</g>
</svg>
